HIERARCHY
ROOT Hips
{
	OFFSET 0.000000 0.000000 0.000000
	CHANNELS 6 Xposition Yposition Zposition Xrotation Yrotation Zrotation
	JOINT LeftUpLeg_virtual
	{
		OFFSET 0.000000 0.000000 0.000000
		CHANNELS 3 Xrotation Yrotation Zrotation
		JOINT LeftUpLeg
		{
			OFFSET 13.026900 -6.336304 -1.092800
			CHANNELS 3 Xrotation Yrotation Zrotation
			JOINT LeftLeg
			{
				OFFSET 0.524474 -46.096886 9.782700
				CHANNELS 3 Xrotation Yrotation Zrotation
				JOINT LeftFoot
				{
					OFFSET -0.524474 -53.427422 -12.948200
					CHANNELS 3 Xrotation Yrotation Zrotation
					JOINT LeftToeBase
					{
						OFFSET 0.192200 -14.009700 16.364100
						CHANNELS 3 Xrotation Yrotation Zrotation
						JOINT LeftToe_End
						{
							OFFSET -1.784700 -0.561700 9.474800
							CHANNELS 3 Xrotation Yrotation Zrotation
							End Site
							{
								OFFSET 0 0 0
							}
						}
					}
				}
			}
		}
	}
	JOINT RightUpLeg_virtual
	{
		OFFSET 0.000000 0.000000 0.000000
		CHANNELS 3 Xrotation Yrotation Zrotation
		JOINT RightUpLeg
		{
			OFFSET -12.883000 -6.336304 -1.092800
			CHANNELS 3 Xrotation Yrotation Zrotation
			JOINT RightLeg
			{
				OFFSET -0.524587 -46.096825 9.782800
				CHANNELS 3 Xrotation Yrotation Zrotation
				JOINT RightFoot
				{
					OFFSET 0.524587 -53.427383 -12.948300
					CHANNELS 3 Xrotation Yrotation Zrotation
					JOINT RightToeBase
					{
						OFFSET -0.192200 -14.009700 16.364100
						CHANNELS 3 Xrotation Yrotation Zrotation
						JOINT RightToe_End
						{
							OFFSET 1.784700 -0.561700 9.474800
							CHANNELS 3 Xrotation Yrotation Zrotation
							End Site
							{
								OFFSET 0 0 0
							}
						}
					}
				}
			}
		}
	}
	JOINT Spine_virtual
	{
		OFFSET 0.000000 0.000000 0.000000
		CHANNELS 3 Xrotation Yrotation Zrotation
		JOINT Spine
		{
			OFFSET 0.072000 7.257294 -0.789700
			CHANNELS 3 Xrotation Yrotation Zrotation
			JOINT Spine1
			{
				OFFSET 0.000000 12.508769 -0.658067
				CHANNELS 3 Xrotation Yrotation Zrotation
				JOINT Spine1_split
				{
					OFFSET 0.000000 12.508769 -0.658067
					CHANNELS 3 Xrotation Yrotation Zrotation
					JOINT Spine2
					{
						OFFSET 0.000000 12.508769 -0.658067
						CHANNELS 3 Xrotation Yrotation Zrotation
						JOINT Neck_virtual
						{
							OFFSET 0.000000 0.000000 0.000000
							CHANNELS 3 Xrotation Yrotation Zrotation
							JOINT Neck
							{
								OFFSET 0.000000 14.033295 7.520400
								CHANNELS 3 Xrotation Yrotation Zrotation
								JOINT Head
								{
									OFFSET 0.000000 8.198502 5.703100
									CHANNELS 3 Xrotation Yrotation Zrotation
									JOINT HeadTop_End
									{
										OFFSET 0.000000 17.760803 13.332701
										CHANNELS 3 Xrotation Yrotation Zrotation
										End Site
										{
											OFFSET 0 0 0
										}
									}
								}
							}
						}
						JOINT LeftShoulder_virtual
						{
							OFFSET 0.000000 0.000000 0.000000
							CHANNELS 3 Xrotation Yrotation Zrotation
							JOINT LeftShoulder
							{
								OFFSET 6.292450 5.785301 -0.669000
								CHANNELS 3 Xrotation Yrotation Zrotation
								JOINT LeftShoulder_split
								{
									OFFSET 6.292450 5.785301 -0.669000
									CHANNELS 3 Xrotation Yrotation Zrotation
									JOINT LeftArm
									{
										OFFSET 13.907140 -6.093903 1.965100
										CHANNELS 3 Xrotation Yrotation Zrotation
										JOINT LeftForeArm
										{
											OFFSET 34.140198 0.000000 0.000000
											CHANNELS 3 Xrotation Yrotation Zrotation
											JOINT LeftHand
											{
												OFFSET 40.960209 0.000000 0.000000
												CHANNELS 3 Xrotation Yrotation Zrotation
												End Site
												{
													OFFSET 0 0 0
												}
											}
										}
									}
								}
							}
						}
						JOINT RightShoulder_virtual
						{
							OFFSET 0.000000 0.000000 0.000000
							CHANNELS 3 Xrotation Yrotation Zrotation
							JOINT RightShoulder
							{
								OFFSET -6.292450 5.785301 -0.669000
								CHANNELS 3 Xrotation Yrotation Zrotation
								JOINT RightShoulder_split
								{
									OFFSET -6.292450 5.785301 -0.669000
									CHANNELS 3 Xrotation Yrotation Zrotation
									JOINT RightArm
									{
										OFFSET -13.907140 -6.093903 1.965100
										CHANNELS 3 Xrotation Yrotation Zrotation
										JOINT RightForeArm
										{
											OFFSET -34.140198 0.000000 0.000000
											CHANNELS 3 Xrotation Yrotation Zrotation
											JOINT RightHand
											{
												OFFSET -40.960209 0.000000 0.000000
												CHANNELS 3 Xrotation Yrotation Zrotation
												End Site
												{
													OFFSET 0 0 0
												}
											}
										}
									}
								}
							}
						}
					}
				}
			}
		}
	}
}
MOTION
Frames: 4
Frame Time: 0.03333333
-0.926479 110.708946 0.454557 0.000000 0.000000 0.000000 -33.525154 -84.893664 -33.514140 -20.808330 13.943603 11.594733 31.707849 0.137603 2.788953 -5.202451 1.508973 -8.876843 -4.226604 0.003389 0.341106 0.000000 0.000000 0.000000 -26.517969 -84.523926 -26.949951 -16.626444 -21.496784 -11.018424 27.921424 6.722277 -7.205657 -5.487013 -1.030352 10.423192 -0.878097 0.078955 0.583013 0.000000 0.000000 0.000000 -35.457646 -83.946863 -36.278840 3.343121 0.523555 0.742042 3.606632 -0.181013 2.033141 0.496425 3.200267 -0.120636 0.000000 0.000000 0.000000 3.295076 -0.015560 1.599482 -6.132264 7.558643 -3.716779 2.971464 33.919911 -1.701096 0.000000 0.000000 0.000000 4.675026 0.267504 1.777431 0.768746 6.200548 0.056276 1.160648 0.832524 -0.456742 10.846835 -79.171031 -52.442175 -0.850822 -20.836563 0.768393 0.000000 0.000000 0.000000 5.432236 0.636501 1.333029 2.171561 1.554682 6.685589 3.003412 3.947656 0.084900 8.629051 26.093146 62.402712 1.351557 31.664289 0.147058 0.000000 0.000000 0.000000 
-0.886678 110.700150 0.467270 0.000000 0.000000 0.000000 -35.221435 -84.957288 -35.163579 -20.610982 13.944863 11.701061 31.950051 -0.019052 2.846216 -5.231967 1.578321 -8.439199 -3.902788 0.030637 0.241396 0.000000 0.000000 0.000000 -27.723516 -84.518448 -28.128182 -16.717026 -21.462891 -10.976605 28.079300 6.677423 -7.259051 -5.274088 -1.168892 10.491653 -0.918908 0.056005 0.609073 0.000000 0.000000 0.000000 -36.377345 -83.926557 -37.289411 3.429664 0.472777 0.856997 3.596211 -0.193000 2.045238 0.537239 2.398653 0.017950 0.000000 0.000000 0.000000 3.271513 0.006902 1.611772 -6.239207 7.548991 -3.759411 2.923100 33.971858 -1.882777 0.000000 0.000000 0.000000 4.684377 0.255159 1.807747 0.741437 6.017033 -0.000106 1.197307 0.794131 -0.385987 11.498022 -79.332859 -52.008192 -1.198967 -21.361046 0.386198 0.000000 0.000000 0.000000 5.524075 0.671555 1.407492 2.230553 1.445371 6.732675 2.993261 3.718700 0.023362 9.268128 26.079704 61.977212 1.385362 31.918697 0.027315 0.000000 0.000000 0.000000 
-0.746389 110.678650 0.392126 0.000000 0.000000 0.000000 -36.632101 -84.947739 -36.598377 -20.596381 13.981997 11.856731 32.269150 -0.351890 3.000166 -5.385770 1.459992 -8.196114 -3.646733 0.064090 0.157422 0.000000 0.000000 0.000000 -29.486050 -84.396256 -29.882429 -16.655450 -21.479724 -10.833890 28.298280 6.700712 -7.367518 -5.165106 -1.323558 10.760832 -0.937568 0.020812 0.569790 0.000000 0.000000 0.000000 -37.057212 -83.829876 -38.058046 3.575564 0.314919 1.094116 3.610099 -0.244406 2.036055 0.513868 1.747313 0.128824 0.000000 0.000000 0.000000 3.348724 -0.022769 1.661347 -6.326410 7.639672 -3.906585 2.975860 34.293588 -2.294486 0.000000 0.000000 0.000000 4.833695 0.195017 1.846602 0.763455 5.892882 -0.014288 1.194025 1.097985 -0.632048 14.934917 -79.613873 -48.980338 -1.303232 -22.272572 0.126257 0.000000 0.000000 0.000000 5.623190 0.635007 1.485452 2.316835 1.358890 6.669366 2.866879 3.820513 0.111960 10.064412 25.991172 61.562032 1.334012 32.953453 0.026515 0.000000 0.000000 0.000000 
-0.561859 110.615829 0.281225 0.000000 0.000000 0.000000 -37.363088 -84.883392 -37.392506 -20.739231 14.160403 12.016114 32.613979 -0.801186 3.227731 -5.654485 1.174886 -8.199402 -3.777875 0.070952 0.193273 0.000000 0.000000 0.000000 -31.462682 -84.272274 -31.841423 -16.553657 -21.461750 -10.654039 28.593718 6.799723 -7.512724 -5.187908 -1.412033 11.177761 -0.880315 -0.014793 0.477187 0.000000 0.000000 0.000000 -37.447110 -83.719213 -38.473110 3.728587 0.102403 1.353525 3.632881 -0.293569 2.017231 0.613476 1.265099 0.143286 0.000000 0.000000 0.000000 3.493132 -0.071681 1.739301 -6.329962 7.786175 -4.128172 3.106997 34.746385 -2.842035 0.000000 0.000000 0.000000 5.056962 0.129263 1.903315 0.809501 5.860197 0.052055 1.087486 1.542694 -0.981053 20.535073 -80.009061 -43.799643 -1.158755 -23.017531 0.021377 0.000000 0.000000 0.000000 5.714645 0.566319 1.553181 2.400171 1.355771 6.551619 2.768661 4.175540 0.219817 10.790726 25.871083 61.241833 1.189864 34.404544 0.150681 0.000000 0.000000 0.000000 
